<mxfile host="app.diagrams.net" modified="2023-11-24T09:08:52.432Z" agent="Mozilla/5.0 (Windows NT 10.0; Win64; x64) AppleWebKit/537.36 (KHTML, like Gecko) Chrome/119.0.0.0 Safari/537.36" version="22.1.3" etag="_1UkatfQGP9vY3KfxtCm" type="github">
  <diagram name="第 1 页" id="dBiSJrbkIYE_m3kUY6z9">
    <mxGraphModel>
      <root>
        <mxCell id="0" />
        <mxCell id="1" parent="0" />
      </root>
    </mxGraphModel>
  </diagram>
</mxfile>
